<?xml version="1.0" encoding="UTF-8"?>
<!DOCTYPE svg PUBLIC "-//W3C//DTD SVG 1.1//EN" "http://www.w3.org/Graphics/SVG/1.1/DTD/svg11.dtd">
<!-- Creator: CorelDRAW -->
<svg xmlns="http://www.w3.org/2000/svg" xml:space="preserve" width="2048px" height="2048px" style="shape-rendering:geometricPrecision; text-rendering:geometricPrecision; image-rendering:optimizeQuality; fill-rule:evenodd; clip-rule:evenodd"
viewBox="0 0 2048 2048"
 xmlns:xlink="http://www.w3.org/1999/xlink">
 <defs>
  <style type="text/css">
   <![CDATA[
    .fil2 {fill:none}
    .fil10 {fill:#00838F}
    .fil1 {fill:#2E7D32}
    .fil0 {fill:#43A047}
    .fil7 {fill:#6D4C41}
    .fil9 {fill:#80DEEA}
    .fil4 {fill:#C62828}
    .fil3 {fill:#E53935}
    .fil5 {fill:#FFD54F}
    .fil6 {fill:#FFE082}
    .fil8 {fill:#F9A825;fill-rule:nonzero}
   ]]>
  </style>
   <clipPath id="id0">
    <path d="M1024 -0.0011811c565.541,0 1024,458.461 1024,1024 0,565.541 -458.461,1024 -1024,1024 -565.541,0 -1024,-458.461 -1024,-1024 0,-565.541 458.461,-1024 1024,-1024z"/>
   </clipPath>
 </defs>
 <g id="Layer_x0020_1">
  <metadata id="CorelCorpID_0Corel-Layer"/>
  <path class="fil0" d="M1024 -0.0011811c565.541,0 1024,458.461 1024,1024 0,565.541 -458.461,1024 -1024,1024 -565.541,0 -1024,-458.461 -1024,-1024 0,-565.541 458.461,-1024 1024,-1024z"/>
  <g style="clip-path:url(#id0)">
   <g id="_385667200">
    <g>
     <polygon id="_2840842961" class="fil1" points="1455.27,564.495 2591.15,1700.38 2596.72,1707.04 2601.92,1713.91 2606.77,1720.98 2611.25,1728.21 2615.37,1735.59 2619.13,1743.08 2622.53,1750.65 2625.57,1758.3 2628.25,1765.98 2630.58,1773.67 2632.55,1781.34 2634.16,1788.98 2635.42,1796.56 2636.33,1804.04 2636.88,1811.4 2637.07,1818.63 2636.92,1825.68 1501.04,689.801 1501.19,682.745 1500.99,675.521 1500.44,668.156 1499.54,660.674 1498.28,653.101 1496.67,645.462 1494.7,637.785 1492.37,630.094 1489.69,622.414 1486.65,614.773 1483.25,607.195 1479.49,599.705 1475.37,592.33 1470.89,585.097 1466.04,578.03 1460.84,571.153 "/>
     <polygon id="_284083792" class="fil1" points="1502.27,690.96 2638.15,1826.84 2638.73,1827.52 2639.28,1828.26 2639.8,1829.06 2640.29,1829.92 2640.75,1830.84 2641.19,1831.81 2641.59,1832.84 2641.96,1833.92 2642.3,1835.05 2642.62,1836.23 2642.9,1837.46 2643.14,1838.73 2643.36,1840.04 2643.55,1841.4 2643.7,1842.79 2643.82,1844.22 2643.91,1845.69 2643.96,1847.2 2643.98,1848.73 2643.96,1850.3 2643.91,1851.89 2643.83,1853.51 2643.71,1855.16 2643.55,1856.83 2643.36,1858.52 2643.13,1860.23 2642.87,1861.96 2642.56,1863.71 2642.22,1865.47 2641.85,1867.24 1505.97,731.362 1506.34,729.589 1506.68,727.828 1506.99,726.082 1507.25,724.352 1507.48,722.64 1507.67,720.948 1507.82,719.278 1507.95,717.631 1508.03,716.01 1508.08,714.414 1508.1,712.849 1508.08,711.314 1508.02,709.81 1507.94,708.342 1507.82,706.909 1507.67,705.514 1507.48,704.158 1507.26,702.845 1507.01,701.574 1506.73,700.348 1506.42,699.169 1506.08,698.038 1505.71,696.958 1505.3,695.931 1504.87,694.956 1504.41,694.039 1503.92,693.178 1503.4,692.377 1502.85,691.636 "/>
     <polygon id="_284084776" class="fil1" points="1505.97,731.362 2641.85,1867.24 2640.88,1871.18 2639.78,1874.96 2638.55,1878.59 2637.2,1882.03 2635.76,1885.27 2634.22,1888.29 2632.6,1891.08 2630.92,1893.63 2629.19,1895.9 2627.42,1897.89 2625.61,1899.58 2623.79,1900.96 2621.97,1902 2620.15,1902.69 2618.36,1903.01 2616.59,1902.95 1480.71,767.063 1482.48,767.127 1484.27,766.806 1486.09,766.118 1487.91,765.077 1489.73,763.703 1491.53,762.011 1493.31,760.019 1495.04,757.743 1496.72,755.201 1498.34,752.409 1499.87,749.384 1501.32,746.143 1502.67,742.704 1503.9,739.082 1505,735.296 "/>
     <polygon id="_284084512" class="fil1" points="1480.71,767.063 2616.59,1902.95 2615.36,1907.29 2614.05,1911.61 2612.65,1915.91 2611.18,1920.19 2609.62,1924.45 2607.99,1928.68 2606.28,1932.87 2604.49,1937.03 2602.63,1941.16 2600.7,1945.25 2598.69,1949.29 2596.61,1953.3 2594.47,1957.25 2592.25,1961.16 2589.97,1965.02 2587.62,1968.82 2585.2,1972.56 2582.72,1976.25 2580.18,1979.87 2577.58,1983.43 2574.92,1986.92 2572.2,1990.35 2569.42,1993.7 2566.58,1996.97 2563.69,2000.17 2560.74,2003.29 2557.75,2006.32 2554.69,2009.27 2551.59,2012.13 2548.44,2014.9 2545.24,2017.58 2542,2020.16 1406.11,884.281 1409.36,881.699 1412.56,879.021 1415.71,876.25 1418.81,873.388 1421.86,870.439 1424.86,867.403 1427.81,864.286 1430.7,861.089 1433.54,857.814 1436.32,854.464 1439.04,851.042 1441.7,847.55 1444.3,843.99 1446.84,840.367 1449.32,836.682 1451.74,832.936 1454.09,829.134 1456.37,825.278 1458.58,821.371 1460.73,817.414 1462.81,813.412 1464.82,809.365 1466.75,805.277 1468.61,801.152 1470.4,796.99 1472.11,792.793 1473.74,788.567 1475.3,784.312 1476.77,780.031 1478.17,775.729 1479.48,771.405 "/>
     <polygon id="_284084752" class="fil1" points="1406.11,884.281 2542,2020.16 2541.17,2020.8 2540.35,2021.42 2539.52,2022.04 2538.69,2022.65 2537.86,2023.26 2537.03,2023.85 2536.2,2024.45 2535.37,2025.03 2534.54,2025.6 2533.7,2026.17 2532.86,2026.73 2532.03,2027.28 2531.19,2027.83 2530.35,2028.36 2529.51,2028.89 2528.66,2029.42 1392.78,893.535 1393.62,893.012 1394.46,892.482 1395.31,891.944 1396.14,891.399 1396.98,890.846 1397.82,890.286 1398.65,889.719 1399.49,889.144 1400.32,888.563 1401.15,887.972 1401.98,887.376 1402.81,886.772 1403.64,886.161 1404.47,885.542 1405.29,884.916 "/>
     <polygon id="_284084800" class="fil1" points="1392.78,893.535 2528.66,2029.42 2528.66,2092.59 1392.78,956.708 "/>
     <polygon id="_284084848" class="fil1" points="1392.78,956.708 2528.66,2092.59 2528.66,2092.79 2528.66,2092.99 2528.66,2093.19 2528.65,2093.39 2528.65,2093.59 2528.65,2093.79 2528.64,2093.99 2528.63,2094.19 1392.75,958.308 1392.76,958.11 1392.76,957.91 1392.77,957.711 1392.77,957.511 1392.78,957.311 1392.78,957.111 1392.78,956.909 "/>
     <polygon id="_284084416" class="fil1" points="1520.51,1027.48 2656.39,2163.36 2659.59,2166.99 2662.67,2170.77 2665.66,2174.71 2668.56,2178.79 2671.37,2183.02 2674.09,2187.4 2676.74,2191.92 2679.32,2196.57 2681.83,2201.35 2684.28,2206.26 2686.68,2211.29 2689.02,2216.45 2691.33,2221.72 2693.6,2227.11 2695.83,2232.6 2698.04,2238.2 2700.23,2243.9 2702.4,2249.71 2704.56,2255.6 2706.72,2261.59 2708.88,2267.66 2711.04,2273.82 2713.22,2280.05 2715.42,2286.37 2717.63,2292.75 2719.88,2299.2 1584,1163.32 1581.75,1156.87 1579.53,1150.48 1577.34,1144.17 1575.16,1137.93 1573,1131.78 1570.84,1125.7 1568.68,1119.72 1566.52,1113.82 1564.35,1108.02 1562.16,1102.32 1559.95,1096.72 1557.72,1091.22 1555.45,1085.84 1553.14,1080.57 1550.79,1075.41 1548.4,1070.38 1545.95,1065.47 1543.43,1060.68 1540.86,1056.03 1538.21,1051.52 1535.48,1047.14 1532.68,1042.91 1529.78,1038.82 1526.79,1034.89 1523.7,1031.1 "/>
     <polygon id="_284085376" class="fil1" points="1270.88,893.537 2406.77,2029.42 2405.26,2028.48 2403.76,2027.51 2402.26,2026.52 2400.76,2025.51 2399.27,2024.48 2397.78,2023.42 2396.3,2022.33 2394.82,2021.22 1258.94,885.342 1260.42,886.45 1261.9,887.533 1263.39,888.594 1264.88,889.629 1266.38,890.642 1267.88,891.63 1269.38,892.595 "/>
     <polygon id="_284085184" class="fil1" points="1258.94,885.342 2394.82,2021.22 2391.51,2018.65 2388.25,2015.98 2385.04,2013.2 2381.88,2010.34 2378.77,2007.38 2375.71,2004.34 2372.71,2001.21 1236.83,865.327 1239.83,868.457 1242.89,871.502 1246,874.457 1249.16,877.322 1252.37,880.093 1255.63,882.767 "/>
     <polygon id="_284085280" class="fil1" points="1182.96,767.085 2318.84,1902.97 2317.08,1903 2315.3,1902.65 2313.49,1901.94 2311.68,1900.88 2309.87,1899.49 2308.08,1897.79 1172.19,761.907 1173.99,763.608 1175.8,764.995 1177.61,766.053 1179.42,766.765 1181.2,767.115 "/>
     <polygon id="_284085664" class="fil1" points="1584,1163.32 2719.88,2299.2 2215.54,2299.2 1079.66,1163.32 "/>
     <polygon id="_284085400" class="fil1" points="833.672,934.55 1969.55,2070.43 1975.49,2076.85 1981.05,2083.51 1986.26,2090.38 1991.1,2097.45 1995.58,2104.68 1999.7,2112.06 2003.46,2119.55 2006.86,2127.12 2009.9,2134.77 2012.59,2142.45 2014.91,2150.14 2016.88,2157.81 2018.5,2165.45 2019.76,2173.03 2020.66,2180.51 2021.21,2187.87 2021.41,2195.1 2021.26,2202.15 885.374,1066.27 885.529,1059.21 885.33,1051.99 884.78,1044.63 883.875,1037.14 882.616,1029.57 881.003,1021.93 879.034,1014.25 876.707,1006.56 874.024,998.884 870.982,991.242 867.582,983.664 863.822,976.175 859.703,968.8 855.222,961.567 850.379,954.499 845.173,947.623 839.605,940.965 "/>
     <polygon id="_284085328" class="fil1" points="890.304,1107.83 2026.19,2243.71 2025.22,2247.65 2024.12,2251.44 2022.88,2255.06 2021.54,2258.5 2020.09,2261.74 2018.56,2264.76 2016.94,2267.55 2015.26,2270.1 2013.53,2272.37 2011.75,2274.36 2009.95,2276.06 2008.13,2277.43 2006.3,2278.47 2004.49,2279.16 2002.69,2279.48 2000.93,2279.42 865.048,1143.53 866.812,1143.6 868.607,1143.28 870.424,1142.59 872.247,1141.55 874.067,1140.17 875.871,1138.48 877.645,1136.49 879.379,1134.21 881.058,1131.67 882.674,1128.88 884.211,1125.85 885.657,1122.61 887.003,1119.17 888.235,1115.55 889.339,1111.77 "/>
     <polygon id="_284085856" class="fil1" points="865.048,1143.53 2000.93,2279.42 1999.7,2283.76 1998.39,2288.08 1996.99,2292.38 1995.51,2296.66 1993.96,2300.92 1992.33,2305.15 1990.61,2309.34 1988.83,2313.5 1986.97,2317.63 1985.03,2321.72 1983.03,2325.76 1980.95,2329.77 1978.8,2333.72 1976.59,2337.63 1974.3,2341.49 1971.95,2345.29 1969.54,2349.03 1967.06,2352.72 1964.52,2356.34 1961.92,2359.9 1959.25,2363.39 1956.53,2366.82 1953.75,2370.17 1950.92,2373.44 1948.03,2376.64 1945.08,2379.76 1942.08,2382.79 1939.03,2385.74 1935.93,2388.6 1932.78,2391.37 1929.58,2394.05 1926.33,2396.63 790.45,1260.75 793.697,1258.17 796.896,1255.49 800.047,1252.72 803.149,1249.86 806.2,1246.91 809.199,1243.87 812.144,1240.76 815.036,1237.56 817.873,1234.28 820.652,1230.94 823.373,1227.51 826.036,1224.02 828.638,1220.46 831.179,1216.84 833.658,1213.15 836.072,1209.41 838.422,1205.61 840.705,1201.75 842.92,1197.84 845.068,1193.89 847.145,1189.88 849.152,1185.84 851.086,1181.75 852.947,1177.62 854.733,1173.46 856.444,1169.26 858.077,1165.04 859.633,1160.78 861.108,1156.5 862.504,1152.2 863.818,1147.88 "/>
     <polygon id="_284085880" class="fil1" points="790.45,1260.75 1926.33,2396.63 1925.51,2397.27 1924.68,2397.89 1923.86,2398.51 1923.03,2399.13 1922.2,2399.73 1921.37,2400.33 1920.54,2400.92 1919.71,2401.5 1918.87,2402.07 1918.04,2402.64 1917.2,2403.2 1916.36,2403.75 1915.52,2404.3 1914.68,2404.83 1913.84,2405.37 1913,2405.89 777.118,1270.01 777.96,1269.48 778.802,1268.95 779.642,1268.42 780.481,1267.87 781.319,1267.32 782.155,1266.76 782.991,1266.19 783.825,1265.61 784.658,1265.03 785.489,1264.44 786.32,1263.85 787.147,1263.24 787.975,1262.63 788.802,1262.01 789.627,1261.39 "/>
     <polygon id="_284085736" class="fil1" points="777.118,1270.01 1913,2405.89 1913,2469.06 777.118,1333.18 "/>
     <polygon id="_284085544" class="fil1" points="777.118,1333.18 1913,2469.06 1913,2469.26 1913,2469.46 1913,2469.66 1912.99,2469.86 1912.99,2470.06 1912.98,2470.26 1912.98,2470.46 1912.97,2470.66 777.088,1334.78 777.095,1334.58 777.101,1334.38 777.106,1334.18 777.11,1333.98 777.114,1333.78 777.115,1333.58 777.118,1333.38 "/>
     <polygon id="_284086024" class="fil1" points="898.13,1397.19 2034.01,2533.07 2037.43,2536.37 2040.73,2539.83 2043.92,2543.46 2047.01,2547.24 2050,2551.18 2052.89,2555.26 2055.7,2559.5 2058.43,2563.87 2061.07,2568.39 2063.65,2573.04 2066.16,2577.82 2068.61,2582.73 2071.01,2587.76 2073.36,2592.92 2075.67,2598.19 2077.93,2603.58 2080.17,2609.07 2082.38,2614.67 2084.56,2620.37 2086.74,2626.18 2088.9,2632.07 2091.06,2638.06 2093.21,2644.13 2095.38,2650.29 2097.56,2656.52 2099.75,2662.84 2101.97,2669.22 2104.22,2675.67 968.337,1539.79 966.089,1533.34 963.871,1526.95 961.676,1520.64 959.498,1514.4 957.333,1508.25 955.175,1502.17 953.017,1496.19 950.855,1490.29 948.683,1484.49 946.496,1478.79 944.287,1473.19 942.053,1467.69 939.785,1462.31 937.479,1457.04 935.131,1451.88 932.734,1446.85 930.282,1441.94 927.771,1437.15 925.194,1432.5 922.544,1427.99 919.82,1423.61 917.012,1419.38 914.117,1415.29 911.129,1411.36 908.042,1407.58 904.849,1403.95 901.548,1400.49 "/>
     <polygon id="_284086240" class="fil1" points="655.221,1270.01 1791.1,2405.89 1789.6,2404.95 1788.09,2403.98 1786.59,2402.99 1785.1,2401.98 1783.61,2400.95 1782.12,2399.89 1780.63,2398.8 1779.15,2397.7 643.274,1261.81 644.754,1262.92 646.237,1264 647.725,1265.06 649.217,1266.1 650.712,1267.11 652.211,1268.1 653.715,1269.07 "/>
     <polygon id="_284086480" class="fil1" points="643.274,1261.81 1779.15,2397.7 1775.85,2395.12 1772.59,2392.45 1769.38,2389.68 633.494,1253.79 636.706,1256.56 639.965,1259.24 "/>
     <polygon id="_284086528" class="fil1" points="567.297,1143.56 1703.18,2279.44 1701.42,2279.47 1699.63,2279.12 1697.83,2278.41 1696.01,2277.35 1694.2,2275.96 558.322,1140.08 560.131,1141.47 561.945,1142.52 563.752,1143.24 565.539,1143.59 "/>
     <polygon id="_284086624" class="fil1" points="968.337,1539.79 2104.22,2675.67 1599.88,2675.67 463.999,1539.79 "/>
     <polygon id="_284086576" class="fil1" points="886.006,1066.82 2021.89,2202.7 2022.49,2203.31 2023.07,2203.99 2023.62,2204.73 2024.14,2205.53 2024.63,2206.39 2025.09,2207.31 2025.52,2208.28 2025.93,2209.31 2026.3,2210.39 2026.64,2211.52 2026.95,2212.7 2027.23,2213.92 2027.48,2215.2 2027.7,2216.51 2027.88,2217.87 2028.04,2219.26 2028.16,2220.69 2028.24,2222.16 2028.29,2223.67 2028.31,2225.2 2028.3,2226.77 2028.25,2228.36 2028.16,2229.98 2028.04,2231.63 2027.89,2233.3 2027.7,2234.99 2027.47,2236.7 2027.2,2238.44 2026.9,2240.18 2026.56,2241.94 2026.19,2243.71 890.304,1107.83 890.681,1106.06 891.02,1104.3 891.322,1102.55 891.587,1100.82 891.814,1099.11 892.006,1097.42 892.162,1095.75 892.282,1094.1 892.367,1092.48 892.417,1090.88 892.432,1089.32 892.413,1087.78 892.36,1086.28 892.274,1084.81 892.155,1083.38 892.002,1081.98 891.817,1080.63 891.601,1079.31 891.351,1078.04 891.07,1076.82 890.759,1075.64 890.417,1074.51 890.044,1073.43 889.641,1072.4 889.208,1071.43 888.746,1070.51 888.255,1069.65 887.735,1068.85 887.186,1068.11 886.609,1067.43 "/>
     <polygon id="_284086312" class="fil1" points="1354.34,1189.91 2490.22,2325.79 2490.22,2601.82 1354.34,1465.93 "/>
     <polygon id="_284086192" class="fil1" points="1354.34,1465.93 2490.22,2601.82 2490.22,2625.34 1354.34,1489.46 "/>
     <polygon id="_284086360" class="fil1" points="1354.34,1489.46 2490.22,2625.34 2466.7,2625.34 1330.82,1489.46 "/>
     <polygon id="_284087224" class="fil1" points="1330.82,1489.46 2466.7,2625.34 2133.12,2625.34 997.243,1489.46 "/>
    </g>
    <path id="_385668064" class="fil1" d="M1327.65 508.21c120.457,0 176.906,107.319 173.385,181.591 6.88111,5.46142 9.15001,22.5862 4.92874,41.5607 -4.7563,21.3496 -15.9591,37.1008 -25.2544,35.7012 -12.6815,46.3973 -39.7217,90.1926 -74.5985,117.219 -4.3878,3.39922 -8.83583,6.48426 -13.3335,9.25394l0 63.1725c0,0.537402 -0.00944883,1.07126 -0.0295276,1.60039 2.39055,0.68504 4.81181,1.41851 7.26379,2.20394 27.4654,8.76379 59.0138,23.8028 98.8418,48.7418 42.7323,26.7591 60.9957,84.88 85.1446,154.067l-504.338 0c24.2646,-68.9292 42.7748,-126.623 85.0453,-154.067 36.965,-24.0012 66.6367,-38.9752 92.6812,-47.9422 4.60394,-1.5874 9.09568,-2.98583 13.4953,-4.21181 -0.0011811,-0.129921 -0.0011811,-0.261024 -0.0011811,-0.392126l0.0011811 -63.1713c-4.02284,-2.47795 -8.00788,-5.20985 -11.948,-8.19449 -35.5382,-26.9268 -63.1241,-71.256 -75.9756,-118.257 -9.26576,1.2 -20.374,-14.4933 -25.0984,-35.7236 -4.22599,-19.0016 -1.9441,-36.1477 4.95709,-41.5843 3.42048,-63.2989 53.9221,-181.567 164.834,-181.567zm-442.279 558.061c6.88111,5.46024 9.15119,22.5862 4.92993,41.5618 -4.75748,21.3496 -15.9591,37.0996 -25.2555,35.7012 -12.6815,46.3973 -39.7217,90.1926 -74.5985,117.219 -4.3878,3.39922 -8.83465,6.48426 -13.3323,9.25394l0 63.1725c0,0.537402 -0.00944883,1.07126 -0.0295276,1.60039 2.39055,0.68504 4.81063,1.41851 7.2626,2.20394 27.4654,8.76379 59.015,23.8028 98.843,48.7418 42.7311,26.7591 60.9957,84.88 85.1434,154.067l-504.338 0c24.2646,-68.9292 42.7748,-126.623 85.0453,-154.067 36.965,-24.0012 66.6367,-38.9752 92.6812,-47.9422 4.60512,-1.5874 9.09686,-2.98583 13.4953,-4.21181 -0.0011811,-0.129921 -0.0011811,-0.261024 -0.0011811,-0.392126l0.0011811 -63.1725c-4.02166,-2.47677 -8.0067,-5.20867 -11.9469,-8.19331 -35.5382,-26.9268 -63.1241,-71.256 -75.9768,-118.257 -9.26576,1.2 -20.3729,-14.4933 -25.0973,-35.7236 -4.22717,-19.0016 -1.94528,-36.1488 4.95709,-41.5843 3.42048,-63.2989 53.9221,-181.567 164.832,-181.567 120.457,0 176.906,107.316 173.385,181.59zm111.869 376.14l310.049 0 0 -252.501 47.0457 0 0 276.024 0 23.524 -23.5229 0 -333.572 0 0 -47.0469z"/>
   </g>
  </g>
  <path class="fil2" d="M1024 -0.0011811c565.541,0 1024,458.461 1024,1024 0,565.541 -458.461,1024 -1024,1024 -565.541,0 -1024,-458.461 -1024,-1024 0,-565.541 458.461,-1024 1024,-1024z"/>
  <path class="fil3" d="M549.045 1385.72c-42.2717,27.4441 -60.7819,85.1375 -85.0453,154.067l504.337 0c-24.1488,-69.1867 -42.4111,-127.306 -85.1446,-154.067 -76.2957,-47.7744 -122.212,-59.2193 -167.232,-59.8335 -46.0441,-0.627166 -91.1635,10.65 -166.915,59.8335z"/>
  <path class="fil4" d="M784.351 1336.98c-25.1457,-8.02678 -46.8721,-10.7976 -68.3906,-11.0917 -23.5736,-0.32126 -46.9099,2.48032 -74.2347,11.8913 -0.633071,2.15079 -0.967324,4.35473 -0.967324,6.60473 0,22.324 32.4177,40.4221 72.4052,40.4221 39.9874,0 72.404,-18.098 72.404,-40.4221 0,-2.52992 -0.420473,-5.00315 -1.21654,-7.40434z"/>
  <path class="fil5" d="M882.053 1064.65c9.39686,2.09291 13.0913,21.4217 8.25001,43.1811 -4.84607,21.7547 -16.3854,37.6961 -25.7811,35.6032 -9.3945,-2.08819 -13.0866,-21.4217 -8.24883,-43.1776 4.84489,-21.7559 16.3843,-37.6985 25.7799,-35.6067z"/>
  <path class="fil5" d="M655.222 1156.86l121.896 0 0 176.316c0,59.5075 -121.897,66.3485 -121.897,0l0.0011811 -176.316z"/>
  <path class="fil5" d="M550.448 1064.65c-9.3945,2.09291 -13.0902,21.4217 -8.24883,43.1811 4.84134,21.7547 16.3843,37.6961 25.7811,35.6032 9.39095,-2.08819 13.0843,-21.4217 8.2441,-43.1776 -4.84016,-21.7559 -16.3795,-37.6985 -25.7764,-35.6067z"/>
  <path class="fil6" d="M716.169 947.315c213.067,0 178.989,232.301 74.2808,313.438 -46.637,36.1347 -100.103,36.724 -147.176,1.06063 -105.786,-80.1508 -141.11,-314.497 72.8953,-314.498z"/>
  <path class="fil7" d="M644.246 981.546c-41.7579,17.7508 -58.767,71.3316 -68.4308,107.439 -14.0421,52.4422 -6.12756,47.9422 -24.8445,7.97835 -18.7217,-39.9567 27.1394,-212.283 161.019,-212.283 133.88,0 188.692,132.568 169.98,204.996 -18.724,72.4312 -18.724,55.2248 -30.4276,0.285827 -30.0898,-141.312 -179.633,30.3626 -207.295,-108.416z"/>
  <polygon class="fil8" points="997.243,1442.41 1307.29,1442.41 1307.29,1189.91 1354.34,1189.91 1354.34,1465.93 1354.34,1489.46 1330.82,1489.46 997.243,1489.46 "/>
  <path class="fil9" d="M1164.71 1009.25c-42.2717,27.4441 -60.7808,85.1375 -85.0453,154.067l504.337 0c-24.1477,-69.1867 -42.4111,-127.306 -85.1434,-154.067 -76.2969,-47.7756 -122.212,-59.2193 -167.234,-59.8335 -46.0429,-0.627166 -91.1635,10.65 -166.915,59.8335z"/>
  <path class="fil10" d="M1400.01 960.512c-25.1469,-8.02796 -46.8721,-10.7976 -68.3906,-11.0917 -23.5748,-0.32126 -46.9099,2.48032 -74.2347,11.8913 -0.633071,2.14961 -0.967324,4.35473 -0.967324,6.60473 0,22.324 32.4166,40.4221 72.4052,40.4221 39.9874,0 72.404,-18.098 72.404,-40.4221 0,-2.52992 -0.420473,-5.00433 -1.21654,-7.40434z"/>
  <path class="fil5" d="M1497.72 688.18c9.39804,2.09291 13.0913,21.4205 8.25119,43.1811 -4.84607,21.7547 -16.3854,37.6961 -25.7811,35.6032 -9.3945,-2.08819 -13.0866,-21.4217 -8.25001,-43.1776 4.84489,-21.7559 16.3854,-37.6985 25.7799,-35.6067z"/>
  <path class="fil5" d="M1270.89 780.392l121.896 0 0 176.316c0,59.5075 -121.898,66.3485 -121.898,0l0.00236221 -176.316z"/>
  <path class="fil5" d="M1166.11 688.18c-9.3945,2.09291 -13.0902,21.4205 -8.25001,43.1811 4.84252,21.7547 16.3843,37.6961 25.7823,35.6032 9.39095,-2.08819 13.0843,-21.4217 8.2441,-43.1776 -4.84016,-21.7559 -16.3795,-37.6985 -25.7764,-35.6067z"/>
  <path class="fil6" d="M1331.83 570.844c213.066,0 178.988,232.301 74.2796,313.438 -46.6359,36.1347 -100.102,36.724 -147.175,1.06063 -105.786,-80.1508 -141.11,-314.497 72.8953,-314.498z"/>
  <path class="fil7" d="M1259.91 605.076c-41.7579,17.7508 -58.7682,71.3304 -68.4308,107.439 -14.0433,52.4422 -6.12756,47.9422 -24.8445,7.97835 -18.7217,-39.9567 27.1382,-212.284 161.019,-212.284 133.88,0 188.691,132.569 169.978,204.997 -18.7228,72.4312 -18.7228,55.2248 -30.4264,0.285827 -30.0898,-141.312 -179.633,30.3626 -207.295,-108.416z"/>
 </g>
</svg>
